<?xml version="1.0" encoding="utf-8"?>
<!-- Generator: Adobe Illustrator 23.0.3, SVG Export Plug-In . SVG Version: 6.00 Build 0)  -->
<svg version="1.1" id="Layer_1" xmlns="http://www.w3.org/2000/svg" xmlns:xlink="http://www.w3.org/1999/xlink" x="0px" y="0px"
	 viewBox="0 0 52.3 45.5" style="enable-background:new 0 0 52.3 45.5;" xml:space="preserve">
<g>
	<path d="M7.2,2.4C8.3,2.4,9.4,3,9.8,4c0.3,0.7,1,1.1,1.8,1.1h36c0.5,0,0.9,0.2,1.2,0.6c0.3,0.4,0.4,0.8,0.3,1.3l-3.6,13.3
		c-0.5,1.9-2.2,3.2-4.2,3.2H16.1c-0.6,0-1.2,0.3-1.5,0.7c-0.4,0.5-0.5,1.1-0.4,1.6l0.5,2.5c0.4,1.9,2.1,3.3,4,3.3h25.2
		c0.1,0,0.1,0,0.1,0.1c0,0.1,0,0.1-0.1,0.1H18.6c-2.1,0-3.8-1.5-4.2-3.5L9.9,4.8C9.6,3.5,8.5,2.6,7.2,2.6h-4c-0.1,0-0.1,0-0.1-0.1
		s0-0.1,0.1-0.1H7.2 M41.8,38.8c1.2,0,2.2,1,2.2,2.2s-1,2.2-2.2,2.2s-2.2-1-2.2-2.2S40.5,38.8,41.8,38.8 M16.5,38.8
		c1.2,0,2.2,1,2.2,2.2s-1,2.2-2.2,2.2s-2.2-1-2.2-2.2S15.3,38.8,16.5,38.8 M7.2,0.4h-4c-1.2,0-2.1,0.9-2.1,2.1
		c0,1.2,0.9,2.1,2.1,2.1h4c0.3,0,0.6,0.2,0.7,0.6l4.5,23.7c0.6,3,3.2,5.1,6.2,5.1h25.2C45,34,46,33,46,31.9c0-1.2-0.9-2.1-2.1-2.1
		H18.6c-1,0-1.9-0.7-2.1-1.7l-0.5-2.5h25.3c2.8,0,5.3-1.9,6.1-4.7L51,7.6c0.6-2.2-1.1-4.4-3.4-4.4h-36C10.9,1.5,9.2,0.4,7.2,0.4
		L7.2,0.4z M41.8,36.8c-2.3,0-4.2,1.9-4.2,4.2s1.9,4.2,4.2,4.2S46,43.3,46,41S44.1,36.8,41.8,36.8L41.8,36.8z M16.5,36.8
		c-2.3,0-4.2,1.9-4.2,4.2s1.9,4.2,4.2,4.2s4.2-1.9,4.2-4.2S18.9,36.8,16.5,36.8L16.5,36.8z"/>
</g>
</svg>
