<?xml version="1.0" encoding="utf-8"?>
<!-- Generator: Adobe Illustrator 23.0.3, SVG Export Plug-In . SVG Version: 6.00 Build 0)  -->
<svg version="1.1" id="Layer_1" xmlns="http://www.w3.org/2000/svg" xmlns:xlink="http://www.w3.org/1999/xlink" x="0px" y="0px"
	 viewBox="0 0 60 50" style="enable-background:new 0 0 60 50;" xml:space="preserve">
<g>
	<path d="M41,5.6c0.7,0,1.3,0.1,2,0.2c5.8,1,10,5.9,10,11.8v0.6c0,3.5-1.5,6.9-4,9.2L31.3,43.9c-0.4,0.3-0.8,0.5-1.3,0.5
		s-1-0.2-1.3-0.5L11,27.4c-2.5-2.4-4-5.7-4-9.2v-0.6c0-5.9,4.2-10.8,10-11.8c0.6-0.1,1.3-0.2,2-0.2c3.1,0,6.2,1.3,8.5,3.5l1.2,1.2
		c0.4,0.4,0.9,0.6,1.4,0.6s1-0.2,1.4-0.6l1.2-1.2C34.8,6.9,37.8,5.6,41,5.6 M41,3.6c-3.7,0-7.2,1.5-9.9,4.1L30,8.9l-1.2-1.2
		c-2.6-2.6-6.2-4.1-9.9-4.1c-0.8,0-1.5,0.1-2.3,0.2C9.9,4.9,5,10.8,5,17.6v0.6c0,4.1,1.7,7.9,4.6,10.7l17.6,16.5
		C28,46,29,46.4,30,46.4s2-0.4,2.7-1.1l17.6-16.5c3-2.8,4.6-6.6,4.6-10.7v-0.6c0-6.8-4.9-12.6-11.7-13.8C42.6,3.7,41.8,3.6,41,3.6
		L41,3.6z"/>
</g>
</svg>
